<?xml version="1.0" encoding="UTF-8"?>
<svg data-bbox="106.828 58.293 61.498 53.635" viewBox="0 0 294 174" height="174" width="294" xmlns="http://www.w3.org/2000/svg" data-type="color">
    <g>
        <path d="M142.2 58.293c-.132 2.27-12.364 15.135-12.906 26.189-.106 2.162.196 4.962 1.753 6.614 1.175 1.246 2.857 1.555 4.487 1.287 3.05-.502 6.027-2.708 8.843-3.98 7.775-3.515 15.654-2.788 23.949-2.66-2.459 2.022-4.469 3.682-6.885 5.868-2.898 2.621-6.272 6.602-9.164 8.868-.856.672-7.206 1.873-8.781 2.205-5.055 1.269-9.174 5.452-12.458 9.244-2.743-2.175-4.933-4.883-7.873-6.87-4.42-2.986-9.931-3.604-13.524-7.89-1.291-1.538-3.035-3.989-2.79-6.121.487-4.239 20.298-21.88 24.48-25.138a145 145 0 0 1 7.469-5.417c1.13-.77 2.317-1.348 3.4-2.199" fill="#FEFEFE" data-color="1"/>
    </g>
</svg>
